<svg width="90" height="90" viewBox="0 0 90 90" fill="none" xmlns="http://www.w3.org/2000/svg">
<g clip-path="url(#clip0_1_102)">
<path d="M67.5 53.4375C65.9475 53.4375 64.6875 52.1775 64.6875 50.625C64.6875 49.0725 65.9475 47.8125 67.5 47.8125C69.0497 47.8125 70.3125 46.5497 70.3125 45C70.3125 43.4503 69.0497 42.1875 67.5 42.1875C65.9475 42.1875 64.6875 40.9275 64.6875 39.375C64.6875 37.8225 65.9475 36.5625 67.5 36.5625C72.1519 36.5625 75.9375 40.3481 75.9375 45C75.9375 49.6519 72.1519 53.4375 67.5 53.4375Z" fill="url(#paint0_linear_1_102)"/>
<path d="M67.5 64.6875C65.9475 64.6875 64.6875 63.4275 64.6875 61.875C64.6875 60.3225 65.9475 59.0625 67.5 59.0625C75.2541 59.0625 81.5625 52.754 81.5625 45C81.5625 37.2459 75.2541 30.9375 67.5 30.9375C65.9475 30.9375 64.6875 29.6775 64.6875 28.125C64.6875 26.5725 65.9475 25.3125 67.5 25.3125C78.3562 25.3125 87.1875 34.1437 87.1875 45C87.1875 55.8562 78.3562 64.6875 67.5 64.6875ZM14.0625 28.125H8.4375C5.33531 28.125 2.8125 30.6478 2.8125 33.75V56.25C2.8125 59.3522 5.33531 61.875 8.4375 61.875H14.0625V28.125ZM55.9997 3.45372C54.1941 2.5031 52.0228 2.62685 50.2931 3.81091L19.6875 25.4981V64.5047L50.2903 86.1918L50.3297 86.22C51.2663 86.8612 52.3519 87.1847 53.4375 87.1847C54.315 87.1847 55.1925 86.9737 55.9969 86.549C57.8897 85.5478 59.0625 83.5706 59.0625 81.3797V8.62029C59.0625 6.42935 57.8897 4.45216 55.9997 3.45372Z" fill="url(#paint1_linear_1_102)"/>
</g>
<defs>
<linearGradient id="paint0_linear_1_102" x1="70.3125" y1="36.5625" x2="70.3125" y2="53.4375" gradientUnits="userSpaceOnUse">
<stop offset="0.18" stop-color="white"/>
<stop offset="0.55" stop-color="#848588"/>
<stop offset="0.8" stop-color="white"/>
</linearGradient>
<linearGradient id="paint1_linear_1_102" x1="45" y1="2.82166" x2="45" y2="87.1847" gradientUnits="userSpaceOnUse">
<stop offset="0.18" stop-color="white"/>
<stop offset="0.55" stop-color="#848588"/>
<stop offset="0.8" stop-color="white"/>
</linearGradient>
<clipPath id="clip0_1_102">
<rect width="90" height="90" fill="white"/>
</clipPath>
</defs>
</svg>
