<svg width="48" height="48" viewBox="0 0 48 48" fill="none" xmlns="http://www.w3.org/2000/svg">
<rect x="0.5" y="0.5" width="47" height="47" rx="3.5" fill="white" fill-opacity="0.06" stroke="url(#paint0_linear_64_4)"/>
<path d="M28.1272 24.2968L26.3016 25.708C25.8087 26.0881 25.1073 25.998 24.7336 25.5064L22.2024 22.236L20.3376 23.6808C19.9632 23.9678 19.4241 23.6865 19.436 23.2216L19.5872 15.8464C19.5928 15.6784 19.6711 15.516 19.8055 15.4152C19.9401 15.3088 20.1136 15.2752 20.276 15.3144L27.4496 17.028C27.6624 17.0784 27.8248 17.2464 27.8696 17.4592C27.9143 17.6664 27.836 17.8848 27.6624 18.0192L25.8031 19.4584L28.3289 22.7288C28.7096 23.216 28.6143 23.9216 28.1272 24.2968Z" fill="url(#paint1_linear_64_4)"/>
<path d="M33.8672 10.5601H14.1328C12.6767 10.5601 11.4952 11.7417 11.4952 13.1977V29.2193C11.4952 30.6753 12.6767 31.8568 14.1328 31.8568H33.8672C35.3231 31.8568 36.5048 30.6752 36.5048 29.2193V13.1977C36.5048 11.7417 35.3231 10.5601 33.8672 10.5601ZM33.1448 28.4968H14.8552V13.9201H33.1448L33.1448 28.4968ZM30.1936 37.2049C30.0872 37.3504 29.9192 37.4401 29.7343 37.4401H18.2655C18.0864 37.4401 17.9184 37.3504 17.812 37.2049C17.7055 37.0593 17.6776 36.8688 17.7336 36.7009L18.5231 34.3825C18.6016 34.1529 18.8143 34.0017 19.0552 34.0017H20.4831V32.9768H27.5111V34.0017H28.9448C29.1855 34.0017 29.3984 34.1529 29.4767 34.3825L30.2664 36.7009C30.3279 36.8688 30.3001 37.0593 30.1936 37.2049Z" fill="url(#paint2_linear_64_4)"/>
<defs>
<linearGradient id="paint0_linear_64_4" x1="48" y1="-8.8049e-06" x2="1.29033" y2="-7.53609e-06" gradientUnits="userSpaceOnUse">
<stop stop-color="#A0A2A5" stop-opacity="0"/>
<stop offset="0.515" stop-color="#A0A2A5"/>
<stop offset="1" stop-color="#A0A2A5" stop-opacity="0"/>
</linearGradient>
<linearGradient id="paint1_linear_64_4" x1="23.9994" y1="15.2986" x2="23.9994" y2="25.9432" gradientUnits="userSpaceOnUse">
<stop offset="0.18" stop-color="white"/>
<stop offset="0.545" stop-color="#848588"/>
<stop offset="0.9" stop-color="white"/>
</linearGradient>
<linearGradient id="paint2_linear_64_4" x1="24" y1="10.5601" x2="24" y2="37.4401" gradientUnits="userSpaceOnUse">
<stop offset="0.18" stop-color="white"/>
<stop offset="0.545" stop-color="#848588"/>
<stop offset="0.9" stop-color="white"/>
</linearGradient>
</defs>
</svg>
