<svg width="26" height="26" viewBox="0 0 26 26" fill="none" xmlns="http://www.w3.org/2000/svg">
<path d="M3.25 6.50008C3.25 6.21276 3.36414 5.93721 3.5673 5.73405C3.77047 5.53088 4.04602 5.41675 4.33333 5.41675H21.6667C21.954 5.41675 22.2295 5.53088 22.4327 5.73405C22.6359 5.93721 22.75 6.21276 22.75 6.50008C22.75 6.7874 22.6359 7.06295 22.4327 7.26611C22.2295 7.46928 21.954 7.58341 21.6667 7.58341H4.33333C4.04602 7.58341 3.77047 7.46928 3.5673 7.26611C3.36414 7.06295 3.25 6.7874 3.25 6.50008ZM3.25 13.0001C3.25 12.7128 3.36414 12.4372 3.5673 12.234C3.77047 12.0309 4.04602 11.9167 4.33333 11.9167H21.6667C21.954 11.9167 22.2295 12.0309 22.4327 12.234C22.6359 12.4372 22.75 12.7128 22.75 13.0001C22.75 13.2874 22.6359 13.5629 22.4327 13.7661C22.2295 13.9693 21.954 14.0834 21.6667 14.0834H4.33333C4.04602 14.0834 3.77047 13.9693 3.5673 13.7661C3.36414 13.5629 3.25 13.2874 3.25 13.0001ZM4.33333 18.4167C4.04602 18.4167 3.77047 18.5309 3.5673 18.734C3.36414 18.9372 3.25 19.2128 3.25 19.5001C3.25 19.7874 3.36414 20.063 3.5673 20.2661C3.77047 20.4693 4.04602 20.5834 4.33333 20.5834H21.6667C21.954 20.5834 22.2295 20.4693 22.4327 20.2661C22.6359 20.063 22.75 19.7874 22.75 19.5001C22.75 19.2128 22.6359 18.9372 22.4327 18.734C22.2295 18.5309 21.954 18.4167 21.6667 18.4167H4.33333Z" fill="white"/>
</svg>
