<svg width="98" height="80" viewBox="0 0 98 80" fill="none" xmlns="http://www.w3.org/2000/svg">
<path d="M86.0889 78.5333C85.0899 78.5374 84.1186 78.2047 83.3319 77.5891C82.5451 76.9734 81.9887 76.1106 81.7525 75.14C81.5162 74.1693 81.6139 73.1473 82.0297 72.239C82.4456 71.3306 83.1553 70.5888 84.0444 70.1333C85.5021 69.3886 86.7257 68.2558 87.5805 66.8599C88.4353 65.4639 88.8881 63.8591 88.8889 62.2222V17.7778C88.8881 16.1409 88.4353 14.5361 87.5805 13.1401C86.7257 11.7442 85.5021 10.6114 84.0444 9.86667C82.9954 9.32445 82.2047 8.38769 81.8463 7.26247C81.4878 6.13725 81.5911 4.91574 82.1333 3.86667C82.6756 2.81759 83.6123 2.02687 84.7375 1.66847C85.8628 1.31007 87.0843 1.41334 88.1333 1.95556C91.0403 3.45117 93.4785 5.71936 95.18 8.51076C96.8815 11.3022 97.7804 14.5087 97.7778 17.7778V62.2222C97.7804 65.4913 96.8815 68.6978 95.18 71.4892C93.4785 74.2806 91.0403 76.5488 88.1333 78.0444C87.4969 78.3579 86.7983 78.5249 86.0889 78.5333ZM62.2222 0H17.7778C13.0628 0 8.54097 1.87301 5.20699 5.20699C1.87301 8.54097 0 13.0628 0 17.7778V62.2222C0 66.9372 1.87301 71.459 5.20699 74.793C8.54097 78.127 13.0628 80 17.7778 80H62.2222C66.9372 80 71.459 78.127 74.793 74.793C78.127 71.459 80 66.9372 80 62.2222V17.7778C80 13.0628 78.127 8.54097 74.793 5.20699C71.459 1.87301 66.9372 0 62.2222 0ZM62.2222 71.1111H17.7778C15.4203 71.1111 13.1594 70.1746 11.4924 68.5076C9.82539 66.8406 8.88889 64.5797 8.88889 62.2222V56L16.6222 46.7111C17.3339 45.8612 18.2145 45.1685 19.208 44.6769C20.2016 44.1853 21.2865 43.9056 22.3939 43.8554C23.5013 43.8053 24.607 43.9858 25.6409 44.3856C26.6748 44.7854 27.6144 45.3957 28.4 46.1778L31.1111 48.8889C31.8002 49.5834 32.6261 50.1272 33.5363 50.4859C34.4465 50.8447 35.4213 51.0105 36.399 50.9729C37.3766 50.9353 38.3358 50.6951 39.2158 50.2675C40.0958 49.8399 40.8774 49.2343 41.5111 48.4889L52.2222 36C52.9394 35.177 53.8173 34.5095 54.8021 34.0386C55.7869 33.5677 56.8576 33.3032 57.9484 33.2616C59.0392 33.22 60.127 33.402 61.1448 33.7965C62.1626 34.191 63.0889 34.7897 63.8667 35.5556L71.1111 42.6667V62.2222C71.1111 64.5797 70.1746 66.8406 68.5076 68.5076C66.8406 70.1746 64.5797 71.1111 62.2222 71.1111ZM28.8889 17.7778C30.2074 17.7778 31.4964 18.1688 32.5927 18.9013C33.689 19.6339 34.5435 20.675 35.0481 21.8932C35.5527 23.1114 35.6847 24.4518 35.4275 25.7451C35.1702 27.0383 34.5353 28.2261 33.6029 29.1585C32.6706 30.0908 31.4827 30.7258 30.1895 30.983C28.8963 31.2402 27.5558 31.1082 26.3377 30.6036C25.1195 30.0991 24.0783 29.2446 23.3458 28.1482C22.6132 27.0519 22.2222 25.763 22.2222 24.4444C22.2222 22.6763 22.9246 20.9806 24.1748 19.7304C25.4251 18.4802 27.1208 17.7778 28.8889 17.7778Z" fill="url(#paint0_linear_1_111)"/>
<defs>
<linearGradient id="paint0_linear_1_111" x1="48.8889" y1="0" x2="48.8889" y2="80" gradientUnits="userSpaceOnUse">
<stop offset="0.18" stop-color="white"/>
<stop offset="0.55" stop-color="#848588"/>
<stop offset="0.9" stop-color="white"/>
</linearGradient>
</defs>
</svg>
