<svg width="48" height="48" viewBox="0 0 48 48" fill="none" xmlns="http://www.w3.org/2000/svg">
<rect x="0.5" y="0.5" width="47" height="47" rx="3.5" fill="white" fill-opacity="0.06" stroke="url(#paint0_linear_1_39)"/>
<path d="M24 12.5557C20.1226 12.5603 16.4054 14.1026 13.6637 16.8443C10.9219 19.586 9.37962 23.3033 9.375 27.1807C9.37223 28.4807 9.54633 29.7751 9.8925 31.0282C9.92401 31.1474 9.99405 31.2528 10.0917 31.3281C10.1894 31.4034 10.3092 31.4443 10.4325 31.4444H37.5675C37.6908 31.4443 37.8106 31.4034 37.9083 31.3281C38.006 31.2528 38.076 31.1474 38.1075 31.0282C38.4537 29.7751 38.6278 28.4807 38.625 27.1807C38.6204 23.3033 37.0781 19.586 34.3363 16.8443C31.5946 14.1026 27.8774 12.5603 24 12.5557ZM23.4375 14.8057C23.4375 14.6565 23.4968 14.5134 23.6023 14.4079C23.7077 14.3024 23.8508 14.2432 24 14.2432C24.1492 14.2432 24.2923 14.3024 24.3977 14.4079C24.5032 14.5134 24.5625 14.6565 24.5625 14.8057V15.7563C24.5625 15.9055 24.5032 16.0485 24.3977 16.154C24.2923 16.2595 24.1492 16.3188 24 16.3188C23.8508 16.3188 23.7077 16.2595 23.6023 16.154C23.4968 16.0485 23.4375 15.9055 23.4375 15.7563V14.8057ZM12.57 27.7094L11.625 27.7038C11.4758 27.7038 11.3327 27.6445 11.2273 27.539C11.1218 27.4335 11.0625 27.2905 11.0625 27.1413C11.0625 26.9921 11.1218 26.849 11.2273 26.7435C11.3327 26.6381 11.4758 26.5788 11.625 26.5788L12.57 26.5844C12.7192 26.5844 12.8623 26.6437 12.9677 26.7492C13.0732 26.8547 13.1325 26.9977 13.1325 27.1469C13.1325 27.2961 13.0732 27.4392 12.9677 27.5447C12.8623 27.6502 12.7192 27.7094 12.57 27.7094ZM14.6119 21.7188C14.5603 21.8024 14.4884 21.8716 14.4028 21.9198C14.3172 21.968 14.2207 21.9937 14.1225 21.9944C14.024 21.9949 13.9271 21.9697 13.8413 21.9213L13.02 21.4432C12.8926 21.3663 12.8001 21.2429 12.7623 21.099C12.7245 20.9551 12.7443 20.8021 12.8175 20.6725C12.8547 20.6086 12.9042 20.5525 12.9631 20.5077C13.022 20.4629 13.0892 20.4301 13.1608 20.4113C13.2324 20.3925 13.307 20.388 13.3803 20.3981C13.4536 20.4082 13.5243 20.4326 13.5881 20.47L14.4038 20.9482C14.5328 21.0234 14.627 21.1465 14.666 21.2908C14.7049 21.435 14.6855 21.5888 14.6119 21.7188ZM18.6056 17.7532C18.4751 17.8269 18.3206 17.8458 18.1761 17.8057C18.0316 17.7657 17.9089 17.6699 17.835 17.5394L17.3681 16.7182C17.2943 16.5884 17.275 16.4346 17.3146 16.2906C17.3541 16.1466 17.4493 16.0242 17.5791 15.9504C17.7089 15.8765 17.8627 15.8572 18.0067 15.8968C18.1507 15.9364 18.273 16.0315 18.3469 16.1613L18.8138 16.9825C18.8874 17.1126 18.9068 17.2663 18.8678 17.4106C18.8289 17.5548 18.7347 17.6779 18.6056 17.7532ZM24.8269 29.1494C24.5653 29.2602 24.2841 29.3176 24 29.3182C23.5807 29.3147 23.1715 29.1888 22.8227 28.956C22.474 28.7232 22.2008 28.3935 22.0369 28.0075C21.8538 27.5768 21.8185 27.0976 21.9366 26.6448C22.0546 26.1919 22.3193 25.7909 22.6894 25.5044L19.905 18.8838C19.8482 18.7464 19.8476 18.5922 19.9033 18.4544C19.9591 18.3165 20.0667 18.2061 20.2031 18.1469C20.271 18.1172 20.3441 18.1014 20.4181 18.1004C20.4922 18.0993 20.5657 18.1131 20.6343 18.1409C20.703 18.1687 20.7654 18.2099 20.8179 18.2621C20.8704 18.3143 20.9119 18.3765 20.94 18.445L23.7188 25.0713C24.0867 25.0194 24.4618 25.068 24.8044 25.2119C25.0645 25.3158 25.3012 25.4709 25.5002 25.668C25.6993 25.8652 25.8567 26.1003 25.9631 26.3594C26.1804 26.8803 26.1829 27.4659 25.97 27.9886C25.7572 28.5113 25.3462 28.9286 24.8269 29.1494ZM30.6769 16.7519L30.2044 17.5675C30.1548 17.6534 30.0835 17.7246 29.9975 17.774C29.9116 17.8234 29.8141 17.8492 29.715 17.8488C29.6182 17.8499 29.5229 17.8246 29.4394 17.7757C29.3749 17.7389 29.3184 17.6898 29.273 17.6311C29.2276 17.5724 29.1943 17.5053 29.1749 17.4337C29.1556 17.362 29.1506 17.2873 29.1603 17.2137C29.1699 17.1402 29.1941 17.0692 29.2313 17.005L29.7038 16.1894C29.7389 16.1222 29.7873 16.0628 29.846 16.0147C29.9048 15.9667 29.9726 15.9311 30.0455 15.9099C30.1183 15.8888 30.1947 15.8826 30.27 15.8918C30.3453 15.9009 30.418 15.9252 30.4837 15.9632C30.5494 16.0011 30.6067 16.052 30.6522 16.1127C30.6977 16.1734 30.7305 16.2426 30.7485 16.3163C30.7666 16.39 30.7695 16.4666 30.7572 16.5414C30.7449 16.6163 30.7176 16.6879 30.6769 16.7519ZM33.9 22.0394C33.8017 22.0393 33.7052 22.0133 33.6203 21.9639C33.5353 21.9145 33.4649 21.8435 33.4163 21.7582C33.3417 21.6289 33.3212 21.4755 33.3591 21.3312C33.397 21.1869 33.4903 21.0634 33.6188 20.9875L34.44 20.515C34.57 20.4414 34.7238 20.422 34.868 20.461C35.0123 20.4999 35.1353 20.5941 35.2106 20.7232C35.284 20.8523 35.3032 21.0052 35.2642 21.1486C35.2253 21.2919 35.1312 21.414 35.0025 21.4882L34.1813 21.9607C34.0973 22.014 33.9995 22.0414 33.9 22.0394ZM36.375 27.76H35.43C35.2808 27.76 35.1377 27.7008 35.0323 27.5953C34.9268 27.4898 34.8675 27.3467 34.8675 27.1975C34.8675 27.0484 34.9268 26.9053 35.0323 26.7998C35.1377 26.6943 35.2808 26.635 35.43 26.635H36.375C36.5242 26.635 36.6673 26.6943 36.7727 26.7998C36.8782 26.9053 36.9375 27.0484 36.9375 27.1975C36.9375 27.3467 36.8782 27.4898 36.7727 27.5953C36.6673 27.7008 36.5242 27.76 36.375 27.76ZM24.9281 26.7925C25.0063 26.9763 25.028 27.1792 24.9904 27.3754C24.9528 27.5716 24.8577 27.7521 24.717 27.8939C24.5764 28.0357 24.3967 28.1325 24.2009 28.1717C24.005 28.211 23.8019 28.1911 23.6175 28.1144C23.4951 28.0653 23.3838 27.9923 23.2901 27.8996C23.1964 27.8068 23.1222 27.6963 23.0719 27.5744C22.9924 27.3906 22.9698 27.1872 23.007 26.9905C23.0441 26.7937 23.1393 26.6126 23.2803 26.4704C23.4213 26.3282 23.6016 26.2315 23.798 26.1927C23.9945 26.1538 24.198 26.1747 24.3825 26.2525C24.5049 26.3016 24.6162 26.3747 24.7099 26.4674C24.8036 26.5601 24.8778 26.6707 24.9281 26.7925Z" fill="url(#paint1_linear_1_39)"/>
<defs>
<linearGradient id="paint0_linear_1_39" x1="48" y1="-8.8049e-06" x2="1.29033" y2="-7.53609e-06" gradientUnits="userSpaceOnUse">
<stop stop-color="#A0A2A5" stop-opacity="0"/>
<stop offset="0.515" stop-color="#A0A2A5"/>
<stop offset="1" stop-color="#A0A2A5" stop-opacity="0"/>
</linearGradient>
<linearGradient id="paint1_linear_1_39" x1="24" y1="12.5557" x2="24" y2="31.4444" gradientUnits="userSpaceOnUse">
<stop offset="0.18" stop-color="white"/>
<stop offset="0.55" stop-color="#848588"/>
<stop offset="0.9" stop-color="white"/>
</linearGradient>
</defs>
</svg>
