
<svg width="300" height="200" viewBox="0 0 300 200" fill="none" xmlns="http://www.w3.org/2000/svg">
  <!-- Background -->
  <rect width="300" height="200" rx="8" fill="#1E1E1E"/>
  
  <!-- Template UI Elements -->
  <rect x="20" y="20" width="260" height="30" rx="4" fill="#2D2D2D"/>
  <rect x="30" y="30" width="100" height="10" rx="2" fill="#6366F1"/>
  <rect x="140" y="30" width="60" height="10" rx="2" fill="#4B4B4B"/>
  <rect x="210" y="30" width="60" height="10" rx="2" fill="#4B4B4B"/>
  
  <!-- Timeline Tracks -->
  <rect x="20" y="60" width="260" height="110" rx="4" fill="#2D2D2D"/>
  
  <!-- Track 1 -->
  <rect x="30" y="70" width="240" height="20" rx="2" fill="#3A3A3A"/>
  <rect x="40" y="75" width="80" height="10" rx="2" fill="#8B5CF6"/>
  <rect x="130" y="75" width="60" height="10" rx="2" fill="#8B5CF6"/>
  <rect x="200" y="75" width="40" height="10" rx="2" fill="#8B5CF6"/>
  
  <!-- Track 2 -->
  <rect x="30" y="100" width="240" height="20" rx="2" fill="#3A3A3A"/>
  <rect x="40" y="105" width="50" height="10" rx="2" fill="#F59E0B"/>
  <rect x="100" y="105" width="70" height="10" rx="2" fill="#F59E0B"/>
  <rect x="180" y="105" width="60" height="10" rx="2" fill="#F59E0B"/>
  
  <!-- Track 3 -->
  <rect x="30" y="130" width="240" height="20" rx="2" fill="#3A3A3A"/>
  <rect x="40" y="135" width="90" height="10" rx="2" fill="#6366F1"/>
  <rect x="140" y="135" width="40" height="10" rx="2" fill="#6366F1"/>
  <rect x="190" y="135" width="70" height="10" rx="2" fill="#6366F1"/>
  
  <!-- Template Controls -->
  <rect x="20" y="180" width="260" height="10" rx="2" fill="#2D2D2D"/>
  <circle cx="30" cy="185" r="4" fill="#6366F1"/>
  <circle cx="45" cy="185" r="4" fill="#8B5CF6"/>
  <rect x="60" y="182" width="20" height="6" rx="1" fill="#4B4B4B"/>
  <rect x="90" y="182" width="20" height="6" rx="1" fill="#4B4B4B"/>
  <rect x="240" y="182" width="30" height="6" rx="1" fill="#6366F1"/>
</svg>

