<svg width="110" height="110" viewBox="0 0 110 110" fill="none" xmlns="http://www.w3.org/2000/svg">
<path fill-rule="evenodd" clip-rule="evenodd" d="M27.5 5.72917C15.4763 5.72917 5.72919 15.4763 5.72919 27.5V82.5C5.72919 94.5239 15.4763 104.271 27.5 104.271H82.5C94.5239 104.271 104.271 94.5239 104.271 82.5V27.5C104.271 15.4763 94.5239 5.72917 82.5 5.72917H27.5ZM38.9584 35.5208C37.842 35.5208 36.869 36.2806 36.5983 37.3635L31.9027 56.1458H46.0139L41.3185 37.3635C41.0477 36.2806 40.0747 35.5208 38.9584 35.5208ZM53.7327 58.6749L47.988 35.6961C46.9522 31.5526 43.2294 28.6458 38.9584 28.6458C34.6873 28.6458 30.9644 31.5526 29.9285 35.6961L24.1838 58.6749C24.1708 58.7226 24.1587 58.7707 24.1477 58.8193L19.5818 77.083C19.1214 78.9246 20.2412 80.7909 22.083 81.2515C23.9247 81.7121 25.7911 80.592 26.2516 78.7504L30.1839 63.0208H47.7327L51.6652 78.7504C52.1258 80.592 53.9922 81.7121 55.8337 81.2515C57.6753 80.7909 58.7955 78.9246 58.3349 77.083L53.7689 58.8193C53.7579 58.7707 53.746 58.7226 53.7327 58.6749ZM65.3125 45.8333C65.3125 43.9349 66.8516 42.3958 68.75 42.3958H77.9167C84.8779 42.3958 90.5209 48.0388 90.5209 55V68.75V77.9167C90.5209 79.8151 88.9818 81.3542 87.0834 81.3542C85.8413 81.3542 84.7527 80.6956 84.1491 79.7078C82.3107 80.7556 80.1836 81.3542 77.9167 81.3542C70.9555 81.3542 65.3125 75.7112 65.3125 68.75C65.3125 61.7888 70.9555 56.1458 77.9167 56.1458C79.9797 56.1458 81.9271 56.6413 83.6459 57.5204V55C83.6459 51.8357 81.081 49.2708 77.9167 49.2708H68.75C66.8516 49.2708 65.3125 47.7318 65.3125 45.8333ZM83.6459 68.75C83.6459 65.5857 81.081 63.0208 77.9167 63.0208C74.7524 63.0208 72.1875 65.5857 72.1875 68.75C72.1875 71.9143 74.7524 74.4792 77.9167 74.4792C81.081 74.4792 83.6459 71.9143 83.6459 68.75Z" fill="url(#paint0_linear_1_119)"/>
<defs>
<linearGradient id="paint0_linear_1_119" x1="55" y1="5.72917" x2="55" y2="104.271" gradientUnits="userSpaceOnUse">
<stop offset="0.18" stop-color="white"/>
<stop offset="0.55" stop-color="#848588"/>
<stop offset="0.9" stop-color="white"/>
</linearGradient>
</defs>
</svg>
