<svg width="100" height="100" viewBox="0 0 100 100" fill="none" xmlns="http://www.w3.org/2000/svg">
<g clip-path="url(#clip0_1_91)">
<path d="M40.1667 31.8333C41.1041 29.75 41.6666 27.4375 41.6666 25C41.6666 15.7916 34.2083 8.33331 25 8.33331C15.7916 8.33331 8.33331 15.7916 8.33331 25C8.33331 34.2083 15.7916 41.6666 25 41.6666C27.4375 41.6666 29.75 41.1041 31.8333 40.1667L41.6666 50L31.8333 59.8333C29.75 58.8958 27.4375 58.3333 25 58.3333C15.7916 58.3333 8.33331 65.7916 8.33331 75C8.33331 84.2083 15.7916 91.6667 25 91.6667C34.2083 91.6667 41.6666 84.2083 41.6666 75C41.6666 72.5625 41.1041 70.25 40.1667 68.1667L50 58.3333L79.1666 87.5H91.6667V83.3333L40.1667 31.8333ZM25 33.3333C20.3958 33.3333 16.6666 29.6041 16.6666 25C16.6666 20.3958 20.3958 16.6666 25 16.6666C29.6041 16.6666 33.3333 20.3958 33.3333 25C33.3333 29.6041 29.6041 33.3333 25 33.3333ZM25 83.3333C20.3958 83.3333 16.6666 79.6041 16.6666 75C16.6666 70.3958 20.3958 66.6666 25 66.6666C29.6041 66.6666 33.3333 70.3958 33.3333 75C33.3333 79.6041 29.6041 83.3333 25 83.3333ZM50 52.0833C48.8541 52.0833 47.9166 51.1458 47.9166 50C47.9166 48.8541 48.8541 47.9166 50 47.9166C51.1458 47.9166 52.0833 48.8541 52.0833 50C52.0833 51.1458 51.1458 52.0833 50 52.0833ZM79.1666 12.5L54.1666 37.5L62.5 45.8333L91.6667 16.6666V12.5H79.1666Z" fill="url(#paint0_linear_1_91)"/>
</g>
<defs>
<linearGradient id="paint0_linear_1_91" x1="50" y1="8.33331" x2="50" y2="91.6666" gradientUnits="userSpaceOnUse">
<stop offset="0.18" stop-color="white"/>
<stop offset="0.55" stop-color="#848588"/>
<stop offset="0.9" stop-color="white"/>
</linearGradient>
<clipPath id="clip0_1_91">
<rect width="100" height="100" fill="white"/>
</clipPath>
</defs>
</svg>
